<?xml version="1.0" standalone="no"?>
<!DOCTYPE svg PUBLIC "-//W3C//DTD SVG 20010904//EN"
 "http://www.w3.org/TR/2001/REC-SVG-20010904/DTD/svg10.dtd">
<svg version="1.0" xmlns="http://www.w3.org/2000/svg"
 width="1024.000000pt" height="1024.000000pt" viewBox="0 0 1024.000000 1024.000000"
 preserveAspectRatio="xMidYMid meet">

<g transform="translate(0.000000,1024.000000) scale(0.100000,-0.100000)"
fill="#FF7233" stroke="none">
<path d="M5783 8590 c-46 -19 -4470 -3400 -4481 -3425 -30 -66 -9 -119 67
-177 31 -23 1022 -782 2204 -1685 1181 -904 2164 -1655 2184 -1668 41 -28 81
-32 123 -10 63 33 60 -2 60 690 0 528 -2 634 -14 651 -8 11 -645 496 -1415
1079 -771 582 -1398 1062 -1394 1066 5 4 629 476 1388 1049 759 572 1392 1055
1408 1071 l27 29 0 633 c0 702 4 664 -66 693 -38 16 -59 17 -91 4z"/>
<path d="M8764 8567 c-99 -67 -4400 -3349 -4426 -3378 -22 -23 -28 -39 -28
-75 0 -25 4 -54 10 -64 14 -27 4456 -3423 4491 -3434 45 -14 106 8 129 47 19
31 20 55 20 652 0 573 -1 622 -18 647 -9 15 -640 498 -1402 1074 -762 575
-1391 1051 -1398 1058 -11 11 234 200 1390 1074 888 671 1409 1071 1416 1087
9 19 12 190 12 641 0 680 2 656 -64 688 -50 24 -78 20 -132 -17z"/>
</g>
</svg>
