<svg width="27" height="18" viewBox="0 0 27 18" fill="none" xmlns="http://www.w3.org/2000/svg">
<path fill-rule="evenodd" clip-rule="evenodd" d="M1 3C1 1.89543 1.89543 1 3 1H25C26.1046 1 27 1.89543 27 3V6.08255C25.6636 6.2868 24.6362 7.51521 24.6362 9.00009C24.6362 10.485 25.6636 11.7134 27 11.9176V15C27 16.1046 26.1046 17 25 17H3C1.89543 17 1 16.1046 1 15V11.9176C2.33631 11.7132 3.36354 10.4849 3.36354 9.00009C3.36354 7.5153 2.33631 6.28694 1 6.08259V3ZM13.256 7.22222C13.256 8.38493 12.3742 9.32749 11.2863 9.32749C10.1985 9.32749 9.31665 8.38493 9.31665 7.22222C9.31665 6.05952 10.1985 5.11696 11.2863 5.11696C12.3742 5.11696 13.256 6.05952 13.256 7.22222ZM10.267 10.1697C8.87179 10.1697 7.74072 11.3008 7.74072 12.696H14.8316C14.8316 11.3008 13.7006 10.1697 12.3053 10.1697H10.267ZM20.2593 2.32924C20.2593 2.16355 20.3936 2.02924 20.5593 2.02924H20.7472C20.9128 2.02924 21.0472 2.16355 21.0472 2.32924V3.41345C21.0472 3.57914 20.9128 3.71345 20.7472 3.71345H20.5593C20.3936 3.71345 20.2593 3.57914 20.2593 3.41345V2.32924ZM20.5593 4.5556C20.3936 4.5556 20.2593 4.68992 20.2593 4.8556V5.93981C20.2593 6.1055 20.3936 6.23981 20.5593 6.23981H20.7472C20.9128 6.23981 21.0472 6.1055 21.0472 5.93981V4.8556C21.0472 4.68992 20.9128 4.5556 20.7472 4.5556H20.5593ZM20.2593 7.38196C20.2593 7.21628 20.3936 7.08196 20.5593 7.08196H20.7472C20.9128 7.08196 21.0472 7.21628 21.0472 7.38196V8.46617C21.0472 8.63186 20.9128 8.76617 20.7472 8.76617H20.5593C20.3936 8.76617 20.2593 8.63186 20.2593 8.46617V7.38196ZM20.5593 9.60782C20.3936 9.60782 20.2593 9.74214 20.2593 9.90782V10.992C20.2593 11.1577 20.3936 11.292 20.5593 11.292H20.7472C20.9128 11.292 21.0472 11.1577 21.0472 10.992V9.90782C21.0472 9.74214 20.9128 9.60782 20.7472 9.60782H20.5593ZM20.2593 12.4342C20.2593 12.2685 20.3936 12.1342 20.5593 12.1342H20.7472C20.9128 12.1342 21.0472 12.2685 21.0472 12.4342V13.5184C21.0472 13.6841 20.9128 13.8184 20.7472 13.8184H20.5593C20.3936 13.8184 20.2593 13.6841 20.2593 13.5184V12.4342ZM20.5593 14.6605C20.3936 14.6605 20.2593 14.7949 20.2593 14.9605V16.0448C20.2593 16.2104 20.3936 16.3448 20.5593 16.3448H20.7472C20.9128 16.3448 21.0472 16.2104 21.0472 16.0448V14.9605C21.0472 14.7949 20.9128 14.6605 20.7472 14.6605H20.5593Z" fill="#FF7233"/>
</svg>
