<svg width="40" height="40" viewBox="0 0 40 40" fill="none" xmlns="http://www.w3.org/2000/svg">
    <g clip-path="url(#clip0_292_1421)">
        <path
            d="M32.3213 22.8055C31.8178 22.8055 31.3349 23.0055 30.9789 23.3615C30.6229 23.7176 30.4228 24.2005 30.4228 24.704V25.4254L27.6131 22.6156C26.621 21.6313 25.2801 21.079 23.8825 21.079C22.485 21.079 21.1441 21.6313 20.152 22.6156L18.823 23.9446L14.1147 19.2363C13.1088 18.2787 11.7731 17.7446 10.3842 17.7446C8.99532 17.7446 7.65963 18.2787 6.65365 19.2363L3.84387 22.0461V11.4145C3.84387 10.911 4.04389 10.4281 4.39993 10.072C4.75597 9.71601 5.23886 9.51598 5.74237 9.51598H19.0319C19.5354 9.51598 20.0183 9.31596 20.3743 8.95993C20.7303 8.60389 20.9304 8.121 20.9304 7.61749C20.9304 7.11397 20.7303 6.63108 20.3743 6.27505C20.0183 5.91901 19.5354 5.71899 19.0319 5.71899H5.74237C4.23183 5.71899 2.78316 6.31905 1.71505 7.38716C0.646935 8.45527 0.046875 9.90394 0.046875 11.4145V34.1965C0.046875 35.707 0.646935 37.1557 1.71505 38.2238C2.78316 39.2919 4.23183 39.892 5.74237 39.892H28.5244C30.0349 39.892 31.4836 39.2919 32.5517 38.2238C33.6198 37.1557 34.2198 35.707 34.2198 34.1965V24.704C34.2198 24.2005 34.0198 23.7176 33.6638 23.3615C33.3078 23.0055 32.8249 22.8055 32.3213 22.8055ZM5.74237 36.095C5.23886 36.095 4.75597 35.895 4.39993 35.5389C4.04389 35.1829 3.84387 34.7 3.84387 34.1965V27.4188L9.34952 21.9132C9.62843 21.6474 9.99893 21.4991 10.3842 21.4991C10.7695 21.4991 11.14 21.6474 11.4189 21.9132L17.4371 27.9314L25.6007 36.095H5.74237ZM30.4228 34.1965C30.4201 34.5599 30.3003 34.9128 30.0811 35.2027L21.5189 26.6025L22.8478 25.2735C22.984 25.1346 23.1464 25.0242 23.3257 24.9489C23.505 24.8736 23.6975 24.8348 23.892 24.8348C24.0865 24.8348 24.279 24.8736 24.4583 24.9489C24.6376 25.0242 24.8001 25.1346 24.9362 25.2735L30.4228 30.7982V34.1965ZM39.3648 6.26955L33.6693 0.574057C33.4887 0.401216 33.2758 0.26573 33.0428 0.175372C32.5806 -0.014512 32.0621 -0.014512 31.5999 0.175372C31.3669 0.26573 31.154 0.401216 30.9734 0.574057L25.2779 6.26955C25.1009 6.44657 24.9605 6.65671 24.8647 6.88799C24.7689 7.11927 24.7196 7.36715 24.7196 7.61749C24.7196 8.12306 24.9204 8.60793 25.2779 8.96542C25.6354 9.32292 26.1203 9.52375 26.6259 9.52375C27.1314 9.52375 27.6163 9.32292 27.9738 8.96542L30.4228 6.49737V17.11C30.4228 17.6135 30.6229 18.0964 30.9789 18.4524C31.3349 18.8085 31.8178 19.0085 32.3213 19.0085C32.8249 19.0085 33.3078 18.8085 33.6638 18.4524C34.0198 18.0964 34.2198 17.6135 34.2198 17.11V6.49737L36.6689 8.96542C36.8454 9.14336 37.0554 9.2846 37.2867 9.38099C37.5181 9.47737 37.7662 9.52699 38.0168 9.52699C38.2675 9.52699 38.5156 9.47737 38.747 9.38099C38.9783 9.2846 39.1883 9.14336 39.3648 8.96542C39.5427 8.78893 39.684 8.57895 39.7803 8.3476C39.8767 8.11625 39.9263 7.86811 39.9263 7.61749C39.9263 7.36686 39.8767 7.11872 39.7803 6.88737C39.684 6.65602 39.5427 6.44604 39.3648 6.26955Z"
            fill="#FF7233" />
    </g>
    <defs>
        <clipPath id="clip0_292_1421">
            <rect width="40" height="40" fill="white" />
        </clipPath>
    </defs>
</svg>