<svg width="18" height="20" viewBox="0 0 18 20" fill="none" xmlns="http://www.w3.org/2000/svg">
<path fill-rule="evenodd" clip-rule="evenodd" d="M18 14.8349C17.9987 14.884 17.9939 14.9331 17.9856 14.9815C18.0073 15.0929 18.004 15.2076 17.976 15.3176C17.948 15.4275 17.896 15.5299 17.8236 15.6174C17.7513 15.705 17.6604 15.7755 17.5575 15.8239C17.4547 15.8723 17.3423 15.8974 17.2286 15.8974H2.82857C2.65973 15.8974 2.49254 15.9306 2.33655 15.995C2.18056 16.0595 2.03882 16.1539 1.91943 16.2729C1.80004 16.392 1.70534 16.5333 1.64073 16.6889C1.57611 16.8444 1.54286 17.0111 1.54286 17.1795C1.54286 17.3478 1.57611 17.5146 1.64073 17.6701C1.70534 17.8257 1.80004 17.967 1.91943 18.086C2.03882 18.2051 2.18056 18.2995 2.33655 18.3639C2.49254 18.4284 2.65973 18.4615 2.82857 18.4615H17.2286C17.4332 18.4615 17.6294 18.5426 17.7741 18.6868C17.9187 18.8311 18 19.0268 18 19.2308C18 19.4348 17.9187 19.6304 17.7741 19.7747C17.6294 19.919 17.4332 20 17.2286 20H2.82857C2.07839 20 1.35893 19.7028 0.828469 19.1739C0.298009 18.6449 0 17.9275 0 17.1795V2.82051C0 2.07247 0.298009 1.35506 0.828469 0.826109C1.35893 0.29716 2.07839 0 2.82857 0H16.6114C17.3787 0 18 0.619487 18 1.38462V14.8349ZM5.91429 4.10256C5.70969 4.10256 5.51347 4.18361 5.3688 4.32787C5.22413 4.47213 5.14286 4.66778 5.14286 4.8718C5.14286 5.07581 5.22413 5.27146 5.3688 5.41572C5.51347 5.55998 5.70969 5.64103 5.91429 5.64103H12.0857C12.2903 5.64103 12.4865 5.55998 12.6312 5.41572C12.7759 5.27146 12.8571 5.07581 12.8571 4.8718C12.8571 4.66778 12.7759 4.47213 12.6312 4.32787C12.4865 4.18361 12.2903 4.10256 12.0857 4.10256H5.91429Z" fill="#FF7233"/>
</svg>
