<svg width="25" height="25" viewBox="0 0 25 25" fill="none" xmlns="http://www.w3.org/2000/svg">
<g clip-path="url(#clip0_172_2565)">
<path fill-rule="evenodd" clip-rule="evenodd" d="M7.72484 3.12467C7.43856 3.7819 7.29104 4.49114 7.2915 5.20801C7.2915 5.76054 7.511 6.29045 7.9017 6.68115C8.2924 7.07185 8.8223 7.29134 9.37484 7.29134H15.6248C16.1774 7.29134 16.7073 7.07185 17.098 6.68115C17.4887 6.29045 17.7082 5.76054 17.7082 5.20801C17.7082 4.46738 17.554 3.76217 17.2748 3.12467H18.7498C19.3024 3.12467 19.8323 3.34417 20.223 3.73487C20.6137 4.12557 20.8332 4.65547 20.8332 5.20801V20.833C20.8332 21.3855 20.6137 21.9154 20.223 22.3061C19.8323 22.6968 19.3024 22.9163 18.7498 22.9163H6.24984C5.6973 22.9163 5.1674 22.6968 4.7767 22.3061C4.386 21.9154 4.1665 21.3855 4.1665 20.833V5.20801C4.1665 4.65547 4.386 4.12557 4.7767 3.73487C5.1674 3.34417 5.6973 3.12467 6.24984 3.12467H7.72484ZM12.4998 14.583H9.37484C9.09857 14.583 8.83362 14.6928 8.63827 14.8881C8.44292 15.0835 8.33317 15.3484 8.33317 15.6247C8.33317 15.9009 8.44292 16.1659 8.63827 16.3612C8.83362 16.5566 9.09857 16.6663 9.37484 16.6663H12.4998C12.7761 16.6663 13.0411 16.5566 13.2364 16.3612C13.4318 16.1659 13.5415 15.9009 13.5415 15.6247C13.5415 15.3484 13.4318 15.0835 13.2364 14.8881C13.0411 14.6928 12.7761 14.583 12.4998 14.583ZM15.6248 10.4163H9.37484C9.10934 10.4166 8.85397 10.5183 8.66091 10.7006C8.46785 10.8828 8.35168 11.1319 8.33612 11.397C8.32056 11.662 8.40679 11.923 8.5772 12.1266C8.7476 12.3302 8.98932 12.461 9.25296 12.4924L9.37484 12.4997H15.6248C15.9011 12.4997 16.1661 12.3899 16.3614 12.1946C16.5568 11.9992 16.6665 11.7343 16.6665 11.458C16.6665 11.1817 16.5568 10.9168 16.3614 10.7214C16.1661 10.5261 15.9011 10.4163 15.6248 10.4163ZM12.4998 2.08301C12.9395 2.08302 13.3742 2.1758 13.7756 2.3553C14.1769 2.5348 14.5359 2.79697 14.829 3.12467C15.2748 3.62259 15.5623 4.26322 15.6155 4.97051L15.6248 5.20801H9.37484C9.37484 4.4528 9.64255 3.76009 10.0884 3.22051L10.1707 3.12467C10.7436 2.48509 11.5748 2.08301 12.4998 2.08301Z" fill="#FF7233"/>
</g>
<defs>
<clipPath id="clip0_172_2565">
<rect width="25" height="25" fill="white"/>
</clipPath>
</defs>
</svg>
