<svg width="34" height="34" viewBox="0 0 34 34" fill="none" xmlns="http://www.w3.org/2000/svg">
<path d="M24.4374 8.49986H24.4434H24.4374ZM31.845 6.37486H25.7981L26.3904 4.00681L28.9351 3.14021C29.4763 2.95627 29.7984 2.38119 29.6423 1.83135C29.6026 1.69303 29.5352 1.56422 29.4442 1.45273C29.3533 1.34124 29.2406 1.2494 29.113 1.18277C28.9855 1.11614 28.8457 1.07611 28.7023 1.06512C28.5588 1.05412 28.4145 1.07239 28.2783 1.11881L25.1572 2.18131C24.9892 2.23862 24.8381 2.33715 24.7179 2.46789C24.5978 2.59863 24.5123 2.7574 24.4693 2.92971L23.608 6.37486H14.9048C14.333 6.37486 13.8423 6.81447 13.8137 7.38623C13.8068 7.52989 13.8291 7.67346 13.8793 7.80824C13.9295 7.94302 14.0066 8.0662 14.1058 8.17033C14.205 8.27445 14.3243 8.35735 14.4565 8.41399C14.5887 8.47063 14.7311 8.49985 14.8749 8.49986H15.0575L15.1239 9.07494C15.1396 9.20924 15.204 9.3331 15.305 9.42298C15.406 9.51285 15.5366 9.56245 15.6718 9.56236C18.2616 9.56236 20.5633 10.2862 22.3204 11.6555C23.2977 12.4085 24.09 13.375 24.6366 14.4811C24.9426 15.1032 25.1684 15.7617 25.3087 16.4407C25.3366 16.573 25.4149 16.6893 25.5271 16.7648C26.4305 17.3777 27.0969 18.2814 27.4156 19.3255C27.7343 20.3696 27.686 21.4914 27.2789 22.5043C27.2316 22.6215 27.228 22.7519 27.269 22.8715C27.5042 23.5457 27.6245 24.2546 27.6249 24.9686C27.6249 26.4521 27.1202 27.8659 26.2038 28.9497C25.6843 29.5682 25.0307 30.0604 24.2926 30.3887C24.165 30.445 24.0645 30.5492 24.0131 30.6789C23.7372 31.3974 23.3478 32.0669 22.8596 32.6618C22.8393 32.6859 22.8262 32.7153 22.8221 32.7466C22.8179 32.7779 22.8227 32.8097 22.8359 32.8384C22.8491 32.867 22.8703 32.8913 22.8968 32.9083C22.9234 32.9254 22.9542 32.9345 22.9858 32.9347H26.2536C27.0537 32.9314 27.8236 32.6288 28.4117 32.0863C28.9998 31.5438 29.3635 30.8008 29.4312 30.0035L31.7022 8.49986H31.8749C32.0188 8.50003 32.1613 8.47095 32.2937 8.41438C32.426 8.35782 32.5455 8.27495 32.6449 8.17081C32.7442 8.06666 32.8214 7.94342 32.8717 7.80855C32.922 7.67368 32.9443 7.53 32.9374 7.38623C32.9095 6.81447 32.4168 6.37486 31.845 6.37486Z" fill="#FF7233"/>
<path d="M7.74895 20.1875C7.9585 20.1865 8.16617 20.2271 8.35995 20.3069C8.55372 20.3867 8.72975 20.5041 8.87785 20.6523L9.90781 21.6823C9.93248 21.707 9.96178 21.7266 9.99403 21.74C10.0263 21.7533 10.0608 21.7602 10.0957 21.7602C10.1307 21.7602 10.1652 21.7533 10.1975 21.74C10.2297 21.7266 10.259 21.707 10.2837 21.6823L11.3116 20.6523C11.4597 20.5041 11.6358 20.3867 11.8295 20.3069C12.0233 20.2271 12.231 20.1865 12.4405 20.1875H25.4947C25.5645 20.1882 25.6337 20.1752 25.6984 20.1491C25.7631 20.123 25.8221 20.0845 25.8719 20.0357C25.9217 19.9868 25.9614 19.9287 25.9888 19.8645C26.0161 19.8003 26.0306 19.7313 26.0313 19.6616V19.6562C26.0305 19.0441 25.8187 18.451 25.4317 17.9768C25.0446 17.5026 24.5058 17.1764 23.9063 17.0531C23.8518 15.0815 23.043 13.4313 21.5482 12.2719C20.1656 11.1934 18.3182 10.625 16.2031 10.625H11.4219C6.89164 10.625 3.82301 13.1996 3.71875 17.0531C3.11918 17.1764 2.58044 17.5026 2.19335 17.9768C1.80627 18.451 1.5945 19.0441 1.59375 19.6562C1.59375 19.7971 1.64972 19.9323 1.74935 20.0319C1.84898 20.1315 1.98411 20.1875 2.125 20.1875H7.74895ZM12.8788 22.3125C12.809 22.3124 12.7399 22.3261 12.6754 22.3528C12.6109 22.3795 12.5523 22.4186 12.503 22.4679L11.0327 23.9388C10.7837 24.1878 10.4459 24.3276 10.0938 24.3276C9.74158 24.3276 9.40383 24.1878 9.15477 23.9388L7.68453 22.4679C7.63516 22.4186 7.57655 22.3795 7.51206 22.3528C7.44757 22.3261 7.37846 22.3124 7.30867 22.3125H2.70008C2.4505 22.3114 2.20856 22.3986 2.01704 22.5586C1.82552 22.7187 1.69676 22.9413 1.65352 23.1871C1.61355 23.4247 1.59356 23.6653 1.59375 23.9062C1.59375 25.9376 2.99692 27.5925 4.73211 27.625C4.89348 28.6291 5.28395 29.5362 5.87164 30.2461C6.7409 31.2959 8.00461 31.875 9.42969 31.875H18.1953C19.6204 31.875 20.8841 31.2959 21.7534 30.2447C22.3411 29.5348 22.7315 28.6277 22.8929 27.6237C24.6281 27.5925 26.0313 25.9376 26.0313 23.9049C26.0314 23.6639 26.0114 23.4234 25.9715 23.1857C25.928 22.9402 25.7991 22.7179 25.6076 22.5581C25.4161 22.3983 25.1743 22.3113 24.9249 22.3125H12.8788Z" fill="#FF7233"/>
</svg>
