<svg width="91" height="91" viewBox="0 0 91 91" fill="none" xmlns="http://www.w3.org/2000/svg">
<circle cx="45.5" cy="45.5" r="45.5" fill="white"/>
<g opacity="0.8">
<path d="M62.8582 35.5918C50.0054 33.8263 38.9221 43.3696 39.6668 56.0279M34.8057 31.7224C34.8057 32.7538 35.2154 33.7429 35.9447 34.4722C36.674 35.2016 37.6632 35.6113 38.6946 35.6113C39.726 35.6113 40.7151 35.2016 41.4444 34.4722C42.1737 33.7429 42.5834 32.7538 42.5834 31.7224C42.5834 30.691 42.1737 29.7018 41.4444 28.9725C40.7151 28.2432 39.726 27.8335 38.6946 27.8335C37.6632 27.8335 36.674 28.2432 35.9447 28.9725C35.2154 29.7018 34.8057 30.691 34.8057 31.7224Z" stroke="#57453C" stroke-width="1.5" stroke-linecap="round" stroke-linejoin="round"/>
<path d="M28 41.5735C33.4056 40.8249 38.2569 43.4363 40.88 47.6013" stroke="#57453C" stroke-width="1.5" stroke-linecap="round" stroke-linejoin="round"/>
<path d="M28 34.4444C28 30.0889 28 27.9111 28.8478 26.2467C29.5934 24.7832 30.7832 23.5934 32.2467 22.8478C33.9111 22 36.0889 22 40.4444 22H50.5556C54.9111 22 57.0889 22 58.7533 22.8478C60.2168 23.5934 61.4065 24.7832 62.1522 26.2467C63 27.9111 63 30.0889 63 34.4444V44.5556C63 48.9111 63 51.0889 62.1522 52.7533C61.4065 54.2168 60.2168 55.4065 58.7533 56.1522C57.0889 57 54.9111 57 50.5556 57H40.4444C36.0889 57 33.9111 57 32.2467 56.1522C30.7832 55.4065 29.5934 54.2168 28.8478 52.7533C28 51.0889 28 48.9111 28 44.5556V34.4444Z" stroke="#57453C" stroke-width="1.5" stroke-linecap="round" stroke-linejoin="round"/>
</g>
<path opacity="0.8" fill-rule="evenodd" clip-rule="evenodd" d="M5.39014 67C13.0641 81.2863 28.1477 91 45.5001 91C62.8525 91 77.9361 81.2863 85.61 67H5.39014Z" fill="#796A63" fill-opacity="0.8"/>
<g clip-path="url(#clip0_237_2241)">
<path d="M39.9929 80.9557L39.0957 84.828C39.0647 84.9695 39.0658 85.1162 39.0988 85.2573C39.1318 85.3984 39.1959 85.5303 39.2864 85.6434C39.3769 85.7566 39.4916 85.8481 39.622 85.9112C39.7524 85.9744 39.8952 86.0076 40.0401 86.0085C40.1076 86.0158 40.1757 86.0158 40.2432 86.0085L44.139 85.1113L51.619 77.6596L47.4446 73.4946L39.9929 80.9557Z" fill="white"/>
<path d="M53.9707 73.9291L51.1846 71.143C51.0014 70.9607 50.7536 70.8584 50.4952 70.8584C50.2368 70.8584 49.9889 70.9607 49.8057 71.143L48.2568 72.6918L52.4266 76.8616L53.9754 75.3127C54.0661 75.2216 54.1379 75.1135 54.1867 74.9946C54.2355 74.8757 54.2604 74.7484 54.26 74.6199C54.2596 74.4914 54.2338 74.3642 54.1841 74.2457C54.1345 74.1271 54.062 74.0195 53.9707 73.9291Z" fill="white"/>
</g>
<defs>
<clipPath id="clip0_237_2241">
<rect width="17" height="17" fill="white" transform="translate(38 70)"/>
</clipPath>
</defs>
</svg>
