<svg width="40" height="40" viewBox="0 0 40 40" fill="none" xmlns="http://www.w3.org/2000/svg">
<path d="M8.0843 17.5C9.35501 17.501 10.5882 17.0695 11.5812 16.2766L14.8234 17.5961L15.3562 16.6094C15.452 16.4328 15.565 16.2661 15.6937 16.1117L16.8046 14.9852L13.5882 13.0367C13.8283 11.8994 13.7101 10.7156 13.2499 9.64819C12.7898 8.58077 12.0102 7.68211 11.0185 7.07581C10.0267 6.46951 8.87152 6.18533 7.71168 6.26237C6.55185 6.33941 5.44436 6.77387 4.54152 7.50601C3.63868 8.23815 2.98483 9.23201 2.66988 10.3509C2.35494 11.4698 2.39436 12.6588 2.78273 13.7544C3.17111 14.85 3.88936 15.7984 4.83872 16.4691C5.78807 17.1398 6.92191 17.5 8.0843 17.5ZM8.0843 8.75C8.70236 8.75 9.30655 8.93328 9.82045 9.27666C10.3344 9.62004 10.7349 10.1081 10.9714 10.6791C11.2079 11.2501 11.2698 11.8785 11.1493 12.4847C11.0287 13.0909 10.731 13.6477 10.294 14.0847C9.85697 14.5218 9.30014 14.8194 8.69395 14.94C8.08776 15.0605 7.45943 14.9987 6.88841 14.7621C6.31739 14.5256 5.82933 14.1251 5.48595 13.6112C5.14257 13.0973 4.9593 12.4931 4.9593 11.875C4.9593 11.0462 5.28854 10.2513 5.87459 9.66529C6.46064 9.07924 7.25549 8.75 8.0843 8.75Z" fill="#FF7233"/>
<path d="M37.5001 13.2033L37.0689 12.2205C36.7189 11.4065 35.9173 10.9705 34.5079 10.826C33.7173 10.7479 32.4025 10.7291 30.6259 11.1236C29.0634 11.4713 21.0837 13.3268 17.7392 15.7033C16.1572 16.8276 15.8595 18.3338 15.6251 19.544C15.408 20.6486 15.2345 21.5213 14.2189 22.2783C13.047 23.1486 12.0884 23.558 11.5955 23.7315C10.5532 22.904 9.25041 22.4744 7.92033 22.5195C6.59026 22.5647 5.31966 23.0817 4.3359 23.978C3.35214 24.8743 2.71942 26.0914 2.55096 27.4115C2.38249 28.7317 2.68928 30.0687 3.41643 31.1833C4.14358 32.2979 5.24363 33.1174 6.51973 33.4952C7.79584 33.8729 9.16472 33.7842 10.3814 33.245C11.5981 32.7058 12.5833 31.7512 13.1605 30.5521C13.7378 29.353 13.8695 27.9876 13.5322 26.7002L37.5001 13.2033ZM19.9595 20.0002C19.7123 20.0002 19.4706 19.9269 19.2651 19.7895C19.0595 19.6522 18.8993 19.457 18.8047 19.2286C18.7101 19.0002 18.6853 18.7488 18.7335 18.5063C18.7818 18.2639 18.9008 18.0411 19.0756 17.8663C19.2504 17.6915 19.4732 17.5725 19.7157 17.5242C19.9581 17.476 20.2095 17.5007 20.4379 17.5954C20.6663 17.69 20.8615 17.8502 20.9988 18.0557C21.1362 18.2613 21.2095 18.503 21.2095 18.7502C21.2095 19.0817 21.0778 19.3997 20.8434 19.6341C20.609 19.8685 20.291 20.0002 19.9595 20.0002ZM8.08452 31.2502C7.46645 31.2502 6.86226 31.0669 6.34836 30.7236C5.83445 30.3802 5.43392 29.8921 5.19739 29.3211C4.96087 28.7501 4.89898 28.1217 5.01956 27.5156C5.14014 26.9094 5.43777 26.3525 5.87481 25.9155C6.31185 25.4785 6.86867 25.1808 7.47486 25.0603C8.08105 24.9397 8.70938 25.0016 9.2804 25.2381C9.85142 25.4746 10.3395 25.8751 10.6829 26.3891C11.0262 26.903 11.2095 27.5071 11.2095 28.1252C11.2095 28.954 10.8803 29.7489 10.2942 30.3349C9.70817 30.921 8.91332 31.2502 8.08452 31.2502Z" fill="#FF7233"/>
<path d="M26.8586 20.3022L20.3164 24.0663L22.475 25.0882L22.7578 25.2241C24.2188 25.9312 28.1047 27.8124 32.0727 28.0468C32.3766 28.0647 32.6563 28.0733 32.9148 28.0733C34.5313 28.071 35.3906 27.6562 35.918 27.3437L37.5 26.2499L26.8586 20.3022Z" fill="#FF7233"/>
</svg>
