<svg width="25" height="22" viewBox="0 0 25 22" fill="none" xmlns="http://www.w3.org/2000/svg">
<path d="M9.673 1H16.8275C17.0653 1 17.2477 1 17.4076 1.01516C18.5433 1.1253 19.473 1.79826 19.8676 2.70464H6.63284C7.02747 1.79826 7.95714 1.1253 9.09284 1.01516C9.25069 1 9.43315 1 9.673 1ZM7.41799 3.75147C5.99324 3.75147 4.82474 4.60025 4.43524 5.72589L4.41064 5.79662C4.81859 5.67537 5.24397 5.59453 5.67344 5.54098C6.78044 5.40053 8.1806 5.40053 9.80625 5.40053H16.8705C18.4962 5.40053 19.8953 5.40053 21.0033 5.54098C21.4338 5.59554 21.8582 5.67436 22.2661 5.79662L22.2426 5.72589C21.8531 4.60025 20.6846 3.75147 19.2588 3.75147H7.41799Z" fill="#FF7233"/>
<path fill-rule="evenodd" clip-rule="evenodd" d="M9.83914 6.59985H16.6615C20.1199 6.59985 21.8501 6.59985 22.8218 7.59717C23.7935 8.59449 23.5639 10.1344 23.1067 13.2153L22.6742 16.1375C22.3154 18.5535 22.1361 19.762 21.2166 20.4855C20.2972 21.209 18.9411 21.209 16.228 21.209H10.2727C7.56056 21.209 6.20346 21.209 5.28404 20.4855C4.36461 19.762 4.18524 18.5535 3.82649 16.1375L3.39394 13.2163C2.93576 10.1344 2.70719 8.59449 3.67889 7.59717C4.65059 6.59985 6.38079 6.59985 9.83914 6.59985ZM9.15034 17.1672C9.15034 16.7488 9.53266 16.4093 10.0042 16.4093H16.4965C16.968 16.4093 17.3503 16.7488 17.3503 17.1672C17.3503 17.5855 16.968 17.925 16.4965 17.925H10.0042C9.53266 17.925 9.15034 17.5855 9.15034 17.1672Z" fill="#FF7233"/>
</svg>
