<svg width="23" height="23" viewBox="0 0 23 23" fill="none" xmlns="http://www.w3.org/2000/svg">
<path fill-rule="evenodd" clip-rule="evenodd" d="M19.6317 4.38437C19.7003 4.31807 19.7551 4.23876 19.7928 4.15107C19.8304 4.06338 19.8503 3.96907 19.8511 3.87363C19.8519 3.7782 19.8337 3.68355 19.7976 3.59522C19.7615 3.50689 19.7081 3.42664 19.6406 3.35915C19.5731 3.29167 19.4929 3.2383 19.4045 3.20216C19.3162 3.16602 19.2216 3.14783 19.1261 3.14866C19.0307 3.14949 18.9364 3.16932 18.8487 3.20699C18.761 3.24466 18.6817 3.29941 18.6154 3.36806L18.0893 3.89419C16.8615 2.83071 15.3946 2.08024 13.8138 1.70691C12.233 1.33357 10.5853 1.34846 9.01155 1.7503C7.43776 2.15214 5.98463 2.92899 4.77633 4.01448C3.56802 5.09998 2.64044 6.46184 2.07285 7.98372C1.50525 9.50561 1.31451 11.1423 1.51691 12.7539C1.71931 14.3655 2.30885 15.9042 3.23515 17.2385C4.16145 18.5727 5.39698 19.6629 6.83618 20.4159C8.27539 21.1689 9.87548 21.5623 11.4998 21.5625C11.1558 21.1049 10.8677 20.6078 10.6416 20.0819C9.29669 19.9474 8.00223 19.4987 6.86261 18.772C5.72299 18.0453 4.77011 17.0609 4.08081 15.8983C3.39151 14.7357 2.9851 13.4274 2.89434 12.0788C2.80359 10.7303 3.03104 9.37926 3.55834 8.13477C4.08565 6.89028 4.89805 5.78713 5.93003 4.91429C6.96201 4.04146 8.18467 3.42337 9.49941 3.10989C10.8142 2.7964 12.1842 2.79629 13.499 3.10956C14.8138 3.42283 16.0365 4.04071 17.0686 4.91337L16.048 5.934C15.1996 5.24122 14.204 4.75152 13.1374 4.50232C12.0707 4.25312 10.9612 4.251 9.89365 4.49613C8.82607 4.74126 7.82864 5.22716 6.97756 5.9167C6.12647 6.60624 5.44424 7.48118 4.98298 8.47469C4.52173 9.4682 4.29365 10.554 4.31617 11.6491C4.33869 12.7442 4.61121 13.8197 5.11293 14.7934C5.61464 15.7672 6.33226 16.6133 7.21098 17.2673C8.0897 17.9212 9.10626 18.3657 10.183 18.5667C10.0915 18.0729 10.052 17.5709 10.0651 17.0689C8.71342 16.7157 7.53641 15.8827 6.75381 14.7254C5.97121 13.5681 5.6365 12.1655 5.81217 10.7795C5.98785 9.39347 6.66188 8.11875 7.70847 7.19326C8.75506 6.26777 10.1027 5.75477 11.4998 5.75C12.777 5.74762 14.0183 6.17269 15.026 6.9575L13.9981 7.98387C13.1168 7.35542 12.0314 7.08137 10.9574 7.21613C9.88343 7.35088 8.89938 7.88459 8.20066 8.71129C7.50194 9.53799 7.13965 10.5972 7.18573 11.6787C7.23181 12.7601 7.68288 13.7847 8.44939 14.5489C8.51612 14.6158 8.59536 14.6688 8.68259 14.705C8.76981 14.7412 8.86332 14.7599 8.95776 14.7599C9.0522 14.76 9.14573 14.7415 9.233 14.7054C9.32028 14.6693 9.39959 14.6164 9.46642 14.5497C9.53325 14.4829 9.58628 14.4037 9.62248 14.3165C9.65868 14.2292 9.67735 14.1357 9.67741 14.0413C9.67748 13.9468 9.65895 13.8533 9.62287 13.766C9.58679 13.6788 9.53387 13.5995 9.46714 13.5326C8.97241 13.0378 8.67512 12.3795 8.63098 11.6812C8.58685 10.9829 8.79891 10.2924 9.22741 9.73927C9.6559 9.1861 10.2714 8.80819 10.9586 8.67636C11.6458 8.54454 12.3575 8.66785 12.9603 9.02319L11.8721 10.1114C11.5664 10.0294 11.2423 10.0507 10.9499 10.1717C10.6575 10.2928 10.4133 10.507 10.255 10.7811C10.0968 11.0551 10.0334 11.3737 10.0747 11.6875C10.116 12.0012 10.2597 12.2926 10.4834 12.5163C10.7072 12.7401 10.9986 12.8838 11.3123 12.9251C11.6261 12.9664 11.9447 12.903 12.2187 12.7447C12.4928 12.5865 12.7069 12.3423 12.828 12.0499C12.9491 11.7575 12.9703 11.4334 12.8884 11.1277L14.5487 9.46737L18.085 5.93112C19.2145 7.26164 19.9115 8.90493 20.0831 10.6418C20.6106 10.8689 21.108 11.1593 21.5623 11.5C21.5623 9.14825 20.7429 6.79794 19.1041 4.9105L19.6317 4.38437ZM22.9998 17.25C22.9998 18.775 22.394 20.2375 21.3156 21.3159C20.2373 22.3942 18.7748 23 17.2498 23C15.7248 23 14.2622 22.3942 13.1839 21.3159C12.1056 20.2375 11.4998 18.775 11.4998 17.25C11.4998 15.725 12.1056 14.2625 13.1839 13.1841C14.2622 12.1058 15.7248 11.5 17.2498 11.5C18.7748 11.5 20.2373 12.1058 21.3156 13.1841C22.394 14.2625 22.9998 15.725 22.9998 17.25ZM20.6336 15.3036C20.7684 15.4384 20.8441 15.6212 20.8441 15.8118C20.8441 16.0024 20.7684 16.1852 20.6336 16.3199L17.0399 19.9137C16.9731 19.9806 16.8938 20.0337 16.8065 20.07C16.7192 20.1062 16.6256 20.1248 16.531 20.1248C16.4365 20.1248 16.3429 20.1062 16.2555 20.07C16.1682 20.0337 16.0889 19.9806 16.0221 19.9137L14.5846 18.4762C14.4499 18.3412 14.3742 18.1583 14.3744 17.9675C14.3745 17.7768 14.4504 17.5939 14.5854 17.4592C14.7203 17.3244 14.9033 17.2487 15.094 17.2489C15.2848 17.249 15.4676 17.3249 15.6024 17.4599L16.531 18.3899L19.6159 15.3036C19.6827 15.2367 19.762 15.1836 19.8493 15.1474C19.9366 15.1111 20.0302 15.0925 20.1248 15.0925C20.2193 15.0925 20.3129 15.1111 20.4002 15.1474C20.4876 15.1836 20.5669 15.2367 20.6336 15.3036Z" fill="#FF7233"/>
</svg>
