<svg width="51" height="53" viewBox="0 0 51 53" fill="none" xmlns="http://www.w3.org/2000/svg">
<path d="M25.3009 2L31.7362 6.69425L39.7016 6.67908L42.1487 14.2594L48.6017 18.9291L46.1259 26.5L48.6017 34.0709L42.1487 38.7406L39.7016 46.3209L31.7362 46.3058L25.3009 51L18.8656 46.3058L10.9002 46.3209L8.45309 38.7406L2 34.0709L4.47588 26.5L2 18.9291L8.45309 14.2594L10.9002 6.67908L18.8656 6.69425L25.3009 2Z" fill="url(#paint0_linear_205_2283)"/>
<path d="M25.8902 1.1921C25.5391 0.935966 25.0627 0.935966 24.7116 1.1921L18.5405 5.69363L10.9021 5.67909C10.4674 5.67826 10.082 5.95827 9.94851 6.37188L7.60191 13.641L1.41376 18.119C1.06165 18.3738 0.914438 18.8269 1.04953 19.24L3.42377 26.5L1.04953 33.76C0.914438 34.1731 1.06165 34.6262 1.41376 34.881L7.60191 39.359L9.94851 46.6281C10.082 47.0417 10.4674 47.3217 10.902 47.3209L18.5405 47.3064L24.7116 51.8079C25.0627 52.064 25.5391 52.064 25.8902 51.8079L32.0613 47.3064L39.6997 47.3209C40.1343 47.3217 40.5197 47.0417 40.6533 46.6281L42.9999 39.359L49.188 34.881C49.5401 34.6262 49.6873 34.1731 49.5522 33.76L47.178 26.5L49.5522 19.24C49.6873 18.8269 49.5401 18.3738 49.188 18.119L42.9999 13.641L40.6533 6.37188C40.5197 5.95827 40.1343 5.67826 39.6997 5.67909L32.0613 5.69363L25.8902 1.1921Z" stroke="#57453C" stroke-opacity="0.85" stroke-width="2" stroke-linecap="round" stroke-linejoin="round"/>
<path d="M16.7258 26.5L22.8508 32.625L35.1008 20.375" stroke="white" stroke-width="4" stroke-linecap="round" stroke-linejoin="round"/>
<defs>
<linearGradient id="paint0_linear_205_2283" x1="25.3009" y1="2" x2="25" y2="88" gradientUnits="userSpaceOnUse">
<stop stop-color="#FFAC71"/>
<stop offset="1" stop-color="#FF6929"/>
</linearGradient>
</defs>
</svg>
