<svg width="27" height="27" viewBox="0 0 27 27" fill="none" xmlns="http://www.w3.org/2000/svg">
<rect width="27" height="26.3916" rx="13.1958" fill="#FF7233"/>
<path d="M15.3333 18.3334H8.33334C7.78106 18.3334 7.33334 17.8857 7.33334 17.3334V8.66675C7.33334 8.11446 7.78106 7.66675 8.33334 7.66675H19.6667C20.219 7.66675 20.6667 8.11446 20.6667 8.66675V12.6863" stroke="white" stroke-width="1.16667" stroke-linecap="round" stroke-linejoin="round"/>
<path d="M19 18.6667V14.6667" stroke="white" stroke-width="1.16667" stroke-linecap="round" stroke-linejoin="round"/>
<path d="M17.3333 16.3334L19 14.6667L20.6667 16.3334" stroke="white" stroke-width="1.16667" stroke-linecap="round" stroke-linejoin="round"/>
<path d="M7.33334 8.66675C7.33334 8.11446 7.78106 7.66675 8.33334 7.66675H19.6667C20.219 7.66675 20.6667 8.11446 20.6667 8.66675V11.6667H7.33334V8.66675Z" stroke="white" stroke-width="1.16667"/>
<path d="M8.6667 9.66683C8.6667 9.29864 8.96517 9.00016 9.33336 9.00016C9.70155 9.00016 10 9.29864 10 9.66683C10 10.035 9.70155 10.3335 9.33336 10.3335C8.96517 10.3335 8.6667 10.035 8.6667 9.66683Z" fill="white"/>
<path d="M10.6667 9.66683C10.6667 9.29864 10.9652 9.00016 11.3334 9.00016C11.7016 9.00016 12 9.29864 12 9.66683C12 10.035 11.7016 10.3335 11.3334 10.3335C10.9652 10.3335 10.6667 10.035 10.6667 9.66683Z" fill="white"/>
</svg>
