<svg width="37" height="36" viewBox="0 0 37 36" fill="none" xmlns="http://www.w3.org/2000/svg">
<rect x="0.266602" y="0.321289" width="35.819" height="35.0119" rx="17" fill="#FFF3ED"/>
<path fill-rule="evenodd" clip-rule="evenodd" d="M25.606 22.2731C25.6049 22.3166 25.6007 22.3599 25.5933 22.4028C25.6125 22.5012 25.6096 22.6026 25.5848 22.6998C25.5601 22.797 25.5141 22.8875 25.4501 22.9649C25.3862 23.0422 25.3059 23.1045 25.2149 23.1473C25.124 23.1901 25.0247 23.2123 24.9241 23.2124H12.1956C12.0463 23.2124 11.8985 23.2417 11.7607 23.2986C11.6228 23.3556 11.4975 23.439 11.392 23.5443C11.2864 23.6495 11.2027 23.7744 11.1456 23.9119C11.0885 24.0494 11.0591 24.1968 11.0591 24.3456C11.0591 24.4944 11.0885 24.6418 11.1456 24.7793C11.2027 24.9168 11.2864 25.0417 11.392 25.1469C11.4975 25.2522 11.6228 25.3356 11.7607 25.3926C11.8985 25.4495 12.0463 25.4788 12.1956 25.4788H24.9241C25.105 25.4788 25.2784 25.5505 25.4063 25.678C25.5342 25.8055 25.606 25.9785 25.606 26.1588C25.606 26.3391 25.5342 26.5121 25.4063 26.6396C25.2784 26.7671 25.105 26.8387 24.9241 26.8387H12.1956C11.5325 26.8387 10.8965 26.5761 10.4276 26.1085C9.95873 25.641 9.69531 25.0068 9.69531 24.3456V11.6533C9.69531 10.9921 9.95873 10.3579 10.4276 9.89038C10.8965 9.42282 11.5325 9.16016 12.1956 9.16016H24.3786C25.0569 9.16016 25.606 9.70774 25.606 10.3841V22.2731ZM14.9231 12.7865C14.7423 12.7865 14.5688 12.8582 14.441 12.9857C14.3131 13.1132 14.2412 13.2861 14.2412 13.4665C14.2412 13.6468 14.3131 13.8198 14.441 13.9473C14.5688 14.0748 14.7423 14.1464 14.9231 14.1464H20.3782C20.5591 14.1464 20.7325 14.0748 20.8604 13.9473C20.9883 13.8198 21.0601 13.6468 21.0601 13.4665C21.0601 13.2861 20.9883 13.1132 20.8604 12.9857C20.7325 12.8582 20.5591 12.7865 20.3782 12.7865H14.9231Z" fill="#FF7233"/>
</svg>
