<svg width="75" height="79" viewBox="0 0 75 79" fill="none" xmlns="http://www.w3.org/2000/svg">
<path d="M37.3009 2L47.0504 9.1118L59.118 9.08882L62.8253 20.5731L72.6017 27.6477L68.8508 39.1176L72.6017 50.5874L62.8253 57.662L59.118 69.1462L47.0504 69.1234L37.3009 76.2351L27.5514 69.1234L15.4838 69.1462L11.7765 57.662L2 50.5874L5.75097 39.1176L2 27.6477L11.7765 20.5731L15.4838 9.08882L27.5514 9.1118L37.3009 2Z" fill="url(#paint0_linear_1288_5684)"/>
<path d="M37.8902 1.1921C37.5391 0.935966 37.0627 0.935966 36.7116 1.1921L27.2263 8.11118L15.4857 8.08883C15.051 8.088 14.6656 8.368 14.5321 8.78162L10.9253 19.9547L1.41376 26.8375C1.06165 27.0923 0.914438 27.5454 1.04953 27.9585L4.69886 39.1176L1.04953 50.2766C0.914438 50.6897 1.06165 51.1428 1.41376 51.3976L10.9253 58.2805L14.5321 69.4534C14.6656 69.867 15.051 70.147 15.4856 70.1462L27.2263 70.124L36.7116 77.043C37.0627 77.2991 37.5391 77.2991 37.8902 77.043L47.3755 70.124L59.1161 70.1462C59.5508 70.147 59.9362 69.867 60.0697 69.4534L63.6765 58.2805L73.188 51.3976C73.5401 51.1428 73.6873 50.6897 73.5522 50.2766L69.9029 39.1176L73.5522 27.9585C73.6873 27.5454 73.5401 27.0923 73.188 26.8375L63.6765 19.9547L60.0697 8.78162C59.9362 8.368 59.5508 8.088 59.1161 8.08883L47.3755 8.11118L37.8902 1.1921Z" stroke="#57453C" stroke-opacity="0.85" stroke-width="2" stroke-linecap="round" stroke-linejoin="round"/>
<path d="M24.3105 39.1173L33.5899 48.3967L52.1487 29.8379" stroke="white" stroke-width="4" stroke-linecap="round" stroke-linejoin="round"/>
<defs>
<linearGradient id="paint0_linear_1288_5684" x1="37.3009" y1="2" x2="36.8451" y2="132.29" gradientUnits="userSpaceOnUse">
<stop stop-color="#FFAC71"/>
<stop offset="1" stop-color="#FF6929"/>
</linearGradient>
</defs>
</svg>
