<svg width="66" height="47" viewBox="0 0 66 47" fill="none" xmlns="http://www.w3.org/2000/svg">
<path d="M52.8813 2.61035H13.6901C11.7771 2.61423 9.94397 3.15693 8.59124 4.11989C7.23851 5.08284 6.47615 6.38778 6.4707 7.74961V25.3699C6.47615 26.7317 7.23851 28.0367 8.59124 28.9996C9.94397 29.9626 11.7771 30.5053 13.6901 30.5092H18.8469V37.851L30.9291 30.6799C31.1146 30.5696 31.3487 30.5091 31.5905 30.5092H52.8813C54.7944 30.5053 56.6275 29.9626 57.9802 28.9996C59.333 28.0367 60.0953 26.7317 60.1008 25.3699V7.74961C60.0953 6.38778 59.333 5.08284 57.9802 4.11989C56.6275 3.15693 54.7944 2.61423 52.8813 2.61035Z" stroke="#FF8000" stroke-width="0.6" stroke-linejoin="round"/>
<path d="M19.3198 8.55728V14H18.4271V10.2723L16.7668 14H16.1482L14.4801 10.2723V14H13.5873V8.55728H14.5506L16.4614 12.8253L18.3644 8.55728H19.3198ZM20.1956 11.8229C20.1956 11.3896 20.2844 11.0059 20.4619 10.6717C20.6446 10.3376 20.89 10.0792 21.198 9.89642C21.5113 9.70848 21.8559 9.6145 22.2318 9.6145C22.5711 9.6145 22.8661 9.68237 23.1167 9.81811C23.3725 9.94863 23.5761 10.1131 23.7275 10.3115V9.68498H24.6281V14H23.7275V13.3578C23.5761 13.5615 23.3699 13.7311 23.1089 13.8669C22.8478 14.0026 22.5502 14.0705 22.2161 14.0705C21.8454 14.0705 21.5061 13.9765 21.198 13.7886C20.89 13.5954 20.6446 13.3291 20.4619 12.9898C20.2844 12.6452 20.1956 12.2562 20.1956 11.8229ZM23.7275 11.8386C23.7275 11.541 23.6649 11.2826 23.5396 11.0633C23.4195 10.844 23.2603 10.6769 23.0619 10.5621C22.8635 10.4472 22.6494 10.3898 22.4197 10.3898C22.19 10.3898 21.9759 10.4472 21.7775 10.5621C21.5792 10.6717 21.4173 10.8362 21.292 11.0554C21.1719 11.2695 21.1119 11.5253 21.1119 11.8229C21.1119 12.1205 21.1719 12.3815 21.292 12.606C21.4173 12.8305 21.5792 13.0028 21.7775 13.1229C21.9812 13.2378 22.1952 13.2952 22.4197 13.2952C22.6494 13.2952 22.8635 13.2378 23.0619 13.1229C23.2603 13.008 23.4195 12.841 23.5396 12.6217C23.6649 12.3972 23.7275 12.1362 23.7275 11.8386ZM29.685 9.68498L27.0381 16.0283H26.114L26.9911 13.9295L25.2917 9.68498H26.2863L27.5001 12.9741L28.7609 9.68498H29.685ZM33.2858 8.55728V14H32.393V8.55728H33.2858ZM38.7241 9.6145C39.053 9.6145 39.3454 9.68498 39.6012 9.82594C39.8623 9.96691 40.0659 10.1757 40.2121 10.4524C40.3635 10.7291 40.4392 11.0633 40.4392 11.4548V14H39.5542V11.588C39.5542 11.2016 39.4577 10.9067 39.2645 10.703C39.0713 10.4942 38.8077 10.3898 38.4735 10.3898C38.1394 10.3898 37.8731 10.4942 37.6747 10.703C37.4816 10.9067 37.385 11.2016 37.385 11.588V14H36.4922V8.20488H37.385V10.1862C37.5364 10.0035 37.7269 9.86249 37.9567 9.76329C38.1916 9.6641 38.4474 9.6145 38.7241 9.6145ZM45.5327 11.7368C45.5327 11.8986 45.5223 12.0448 45.5014 12.1753H42.2044C42.2305 12.5199 42.3585 12.7966 42.5882 13.0054C42.8179 13.2143 43.0998 13.3187 43.434 13.3187C43.9143 13.3187 44.2536 13.1177 44.452 12.7157H45.4153C45.2847 13.1125 45.0472 13.4388 44.7026 13.6946C44.3633 13.9452 43.9404 14.0705 43.434 14.0705C43.0215 14.0705 42.6508 13.9791 42.3219 13.7964C41.9982 13.6084 41.7424 13.3474 41.5545 13.0133C41.3717 12.6739 41.2804 12.2823 41.2804 11.8386C41.2804 11.3948 41.3691 11.0059 41.5466 10.6717C41.7293 10.3324 41.9826 10.0713 42.3063 9.88859C42.6352 9.70586 43.0111 9.6145 43.434 9.6145C43.8412 9.6145 44.204 9.70325 44.5225 9.88076C44.841 10.0583 45.089 10.3089 45.2665 10.6326C45.444 10.951 45.5327 11.3191 45.5327 11.7368ZM44.6008 11.4548C44.5956 11.1259 44.4781 10.8623 44.2484 10.6639C44.0187 10.4655 43.7341 10.3663 43.3948 10.3663C43.0868 10.3663 42.8231 10.4655 42.6038 10.6639C42.3846 10.8571 42.254 11.1207 42.2123 11.4548H44.6008ZM47.3041 8.20488V14H46.4113V8.20488H47.3041ZM49.3689 10.3193C49.5203 10.1209 49.7266 9.95385 49.9876 9.81811C50.2486 9.68237 50.5436 9.6145 50.8725 9.6145C51.2484 9.6145 51.5904 9.70848 51.8984 9.89642C52.2117 10.0792 52.4571 10.3376 52.6346 10.6717C52.8121 11.0059 52.9008 11.3896 52.9008 11.8229C52.9008 12.2562 52.8121 12.6452 52.6346 12.9898C52.4571 13.3291 52.2117 13.5954 51.8984 13.7886C51.5904 13.9765 51.2484 14.0705 50.8725 14.0705C50.5436 14.0705 50.2513 14.0052 49.9954 13.8747C49.7396 13.739 49.5308 13.5719 49.3689 13.3735V16.0518H48.4762V9.68498H49.3689V10.3193ZM51.9924 11.8229C51.9924 11.5253 51.9298 11.2695 51.8045 11.0554C51.6844 10.8362 51.5225 10.6717 51.3189 10.5621C51.1205 10.4472 50.9065 10.3898 50.6768 10.3898C50.4523 10.3898 50.2382 10.4472 50.0346 10.5621C49.8362 10.6769 49.6744 10.844 49.5491 11.0633C49.429 11.2826 49.3689 11.541 49.3689 11.8386C49.3689 12.1362 49.429 12.3972 49.5491 12.6217C49.6744 12.841 49.8362 13.008 50.0346 13.1229C50.2382 13.2378 50.4523 13.2952 50.6768 13.2952C50.9065 13.2952 51.1205 13.2378 51.3189 13.1229C51.5225 13.0028 51.6844 12.8305 51.8045 12.606C51.9298 12.3815 51.9924 12.1205 51.9924 11.8229ZM17.4716 21.685L14.8247 28.0283H13.9006L14.7777 25.9295L13.0783 21.685H14.0729L15.2867 24.9741L16.5476 21.685H17.4716ZM20.017 26.0705C19.6098 26.0705 19.2418 25.9791 18.9128 25.7964C18.5839 25.6084 18.3255 25.3474 18.1375 25.0133C17.9496 24.6739 17.8556 24.2823 17.8556 23.8386C17.8556 23.4 17.9522 23.0111 18.1454 22.6717C18.3385 22.3324 18.6022 22.0713 18.9363 21.8886C19.2705 21.7059 19.6438 21.6145 20.0562 21.6145C20.4686 21.6145 20.8419 21.7059 21.1761 21.8886C21.5102 22.0713 21.7739 22.3324 21.967 22.6717C22.1602 23.0111 22.2568 23.4 22.2568 23.8386C22.2568 24.2771 22.1576 24.6661 21.9592 25.0054C21.7608 25.3448 21.4893 25.6084 21.1447 25.7964C20.8054 25.9791 20.4295 26.0705 20.017 26.0705ZM20.017 25.2952C20.2468 25.2952 20.4608 25.2404 20.6592 25.1307C20.8628 25.0211 21.0273 24.8566 21.1526 24.6374C21.2779 24.4181 21.3405 24.1518 21.3405 23.8386C21.3405 23.5253 21.2805 23.2617 21.1604 23.0476C21.0403 22.8283 20.8811 22.6639 20.6827 22.5542C20.4843 22.4446 20.2703 22.3898 20.0405 22.3898C19.8108 22.3898 19.5968 22.4446 19.3984 22.5542C19.2052 22.6639 19.0512 22.8283 18.9363 23.0476C18.8215 23.2617 18.764 23.5253 18.764 23.8386C18.764 24.3032 18.8815 24.6635 19.1165 24.9193C19.3566 25.1699 19.6568 25.2952 20.017 25.2952ZM27.0471 21.685V26H26.1544V25.491C26.0134 25.6685 25.8281 25.8094 25.5983 25.9139C25.3738 26.0131 25.1337 26.0627 24.8779 26.0627C24.5385 26.0627 24.2331 25.9922 23.9616 25.8512C23.6953 25.7102 23.4839 25.5014 23.3273 25.2247C23.1759 24.948 23.1002 24.6139 23.1002 24.2223V21.685H23.9851V24.0892C23.9851 24.4755 24.0817 24.7731 24.2749 24.9819C24.468 25.1855 24.7317 25.2874 25.0658 25.2874C25.3999 25.2874 25.6636 25.1855 25.8568 24.9819C26.0552 24.7731 26.1544 24.4755 26.1544 24.0892V21.685H27.0471ZM31.3792 20.5573L31.2774 24.3554H30.5334L30.4316 20.5573H31.3792ZM30.9328 26.0548C30.771 26.0548 30.6352 26 30.5256 25.8904C30.416 25.7807 30.3611 25.645 30.3611 25.4831C30.3611 25.3213 30.416 25.1855 30.5256 25.0759C30.6352 24.9663 30.771 24.9115 30.9328 24.9115C31.0895 24.9115 31.2226 24.9663 31.3322 25.0759C31.4419 25.1855 31.4967 25.3213 31.4967 25.4831C31.4967 25.645 31.4419 25.7807 31.3322 25.8904C31.2226 26 31.0895 26.0548 30.9328 26.0548ZM33.8953 20.5573L33.7935 24.3554H33.0495L32.9477 20.5573H33.8953ZM33.4489 26.0548C33.2871 26.0548 33.1513 26 33.0417 25.8904C32.9321 25.7807 32.8772 25.645 32.8772 25.4831C32.8772 25.3213 32.9321 25.1855 33.0417 25.0759C33.1513 24.9663 33.2871 24.9115 33.4489 24.9115C33.6055 24.9115 33.7387 24.9663 33.8483 25.0759C33.958 25.1855 34.0128 25.3213 34.0128 25.4831C34.0128 25.645 33.958 25.7807 33.8483 25.8904C33.7387 26 33.6055 26.0548 33.4489 26.0548Z" fill="#624637"/>
</svg>
