<svg width="21" height="18" viewBox="0 0 21 18" fill="none" xmlns="http://www.w3.org/2000/svg">
<path d="M2.92036 10.2135V13.1125C2.92036 13.8656 3.32213 14.5671 3.96496 14.9282L8.98709 17.7447C9.58974 18.0851 10.3129 18.0851 10.9156 17.7447L15.9377 14.9282C16.5805 14.5671 16.9823 13.8656 16.9823 13.1125V10.2135L10.9156 13.618C10.3129 13.9584 9.58974 13.9584 8.98709 13.618L2.92036 10.2135ZM8.98709 0.2476L0.51979 4.99327C-0.173263 5.3853 -0.173263 6.41697 0.51979 6.809L8.98709 11.5547C9.58974 11.8951 10.3129 11.8951 10.9156 11.5547L18.9911 7.02565V13.1228C18.9911 13.6902 19.4431 14.1545 19.9956 14.1545C20.548 14.1545 21 13.6902 21 13.1228V6.50982C21 6.1281 20.7991 5.78765 20.4777 5.60195L10.9156 0.2476C10.6188 0.0850349 10.2877 0 9.95133 0C9.615 0 9.28385 0.0850349 8.98709 0.2476Z" fill="#FF7233"/>
</svg>
