<svg width="16" height="16" viewBox="0 0 16 16" fill="none" xmlns="http://www.w3.org/2000/svg">
    <g clip-path="url(#clip0_292_922)">
        <path
            d="M5.43947 14.0801C4.02763 14.0801 2.87947 12.932 2.87947 11.5201V3.20013H2.23947C1.53227 3.20013 0.959473 3.77293 0.959473 4.48013V14.7201C0.959473 15.4273 1.53227 16.0001 2.23947 16.0001H10.5595C11.2667 16.0001 11.8395 15.4273 11.8395 14.7201V14.0801H5.43947Z"
            fill="#624637" />
        <path
            d="M14.8517 3.70758L11.3317 0.187581C11.2113 0.067261 11.0488 6.10352e-05 10.8792 6.10352e-05H5.43918C4.73198 6.10352e-05 4.15918 0.572861 4.15918 1.28006V11.5201C4.15918 12.2273 4.73198 12.8001 5.43918 12.8001H13.7592C14.4664 12.8001 15.0392 12.2273 15.0392 11.5201V4.16006C15.0392 3.99046 14.972 3.8279 14.8517 3.70758ZM11.1992 4.48006C10.8459 4.48006 10.5592 4.19334 10.5592 3.84006V1.21862L13.8206 4.48006H11.1992Z"
            fill="#624637" />
    </g>
    <defs>
        <clipPath id="clip0_292_922">
            <rect width="14.08" height="16" fill="white" transform="translate(0.959961)" />
        </clipPath>
    </defs>
</svg>