<svg width="14" height="20" viewBox="0 0 14 20" fill="none" xmlns="http://www.w3.org/2000/svg">
<path d="M13.3784 6.75405C13.3784 5.8671 13.2054 4.98883 12.8692 4.16939C12.533 3.34995 12.0403 2.60539 11.4192 1.97822C10.798 1.35104 10.0606 0.853545 9.24903 0.514122C8.43746 0.174699 7.56763 0 6.68919 0C5.81075 0 4.94092 0.174699 4.12935 0.514122C3.31778 0.853545 2.58037 1.35104 1.95922 1.97822C1.33807 2.60539 0.845347 3.34995 0.509184 4.16939C0.173021 4.98883 -1.30897e-08 5.8671 0 6.75405C0 8.09232 0.39084 9.337 1.05594 10.3868H1.04829L6.68919 19.2973L12.3301 10.3868H12.3234C13.0123 9.30285 13.3785 8.04198 13.3784 6.75405ZM6.68919 9.64865C5.92887 9.64865 5.19969 9.34368 4.66206 8.80084C4.12443 8.258 3.82239 7.52175 3.82239 6.75405C3.82239 5.98636 4.12443 5.25011 4.66206 4.70727C5.19969 4.16442 5.92887 3.85946 6.68919 3.85946C7.44951 3.85946 8.17869 4.16442 8.71632 4.70727C9.25395 5.25011 9.55598 5.98636 9.55598 6.75405C9.55598 7.52175 9.25395 8.258 8.71632 8.80084C8.17869 9.34368 7.44951 9.64865 6.68919 9.64865Z" fill="white"/>
</svg>
