<svg width="40" height="37" viewBox="0 0 40 37" fill="none" xmlns="http://www.w3.org/2000/svg">
<rect width="39.1757" height="36.9775" rx="18.4887" fill="#FF7233"/>
<path d="M25.6448 23.0742L29.732 27.0536L28.3817 28.3686L24.2954 24.3883C22.775 25.5753 20.8839 26.2208 18.9352 26.2181C14.1944 26.2181 10.3467 22.4711 10.3467 17.8542C10.3467 13.2373 14.1944 9.49023 18.9352 9.49023C23.6761 9.49023 27.5238 13.2373 27.5238 17.8542C27.5265 19.7519 26.8636 21.5936 25.6448 23.0742ZM23.7305 22.3847C24.9413 21.1716 25.6176 19.5459 25.6152 17.8542C25.6152 14.2605 22.6254 11.3489 18.9352 11.3489C15.245 11.3489 12.2553 14.2605 12.2553 17.8542C12.2553 21.4479 15.245 24.3595 18.9352 24.3595C20.6724 24.3619 22.3417 23.7032 23.5874 22.5241L23.7305 22.3847Z" fill="white"/>
</svg>
