<svg width="42" height="43" viewBox="0 0 42 43" fill="none" xmlns="http://www.w3.org/2000/svg">
<g clip-path="url(#clip0_38_283)">
<path d="M41.4537 22.4282C41.4537 21.0191 41.3173 19.5646 41.09 18.2009H21.4082V26.2464H32.6809C32.2264 28.8373 30.7264 31.11 28.4991 32.5646L35.2264 37.7918C39.1809 34.11 41.4537 28.7464 41.4537 22.4282Z" fill="#4280EF"/>
<path d="M21.4088 42.7919C27.0452 42.7919 31.7725 40.9282 35.227 37.7464L28.4997 32.5646C26.6361 33.8373 24.227 34.5646 21.4088 34.5646C15.9543 34.5646 11.3634 30.8828 9.68155 25.9737L2.77246 31.2919C6.31792 38.3373 13.4997 42.7919 21.4088 42.7919Z" fill="#34A353"/>
<path d="M9.68164 25.9282C8.818 23.3373 8.818 20.5191 9.68164 17.9282L2.77255 12.5646C-0.181996 18.4737 -0.181996 25.4282 2.77255 31.2919L9.68164 25.9282Z" fill="#F6B704"/>
<path d="M21.4088 9.3373C24.3634 9.29185 27.2725 10.4282 29.4088 12.4737L35.3634 6.47367C31.5906 2.92821 26.5906 1.01912 21.4088 1.06458C13.4997 1.06458 6.31792 5.51912 2.77246 12.5646L9.68155 17.9282C11.3634 12.9737 15.9543 9.3373 21.4088 9.3373Z" fill="#E54335"/>
</g>
<defs>
<clipPath id="clip0_38_283">
<rect width="40.9091" height="42.1875" fill="white" transform="translate(0.54541 0.822021)"/>
</clipPath>
</defs>
</svg>
